<svg xmlns="http://www.w3.org/2000/svg" width="80" height="81" viewBox="0 0 80 81" fill="none"><circle cx="40" cy="40.7405" r="40" fill="url(#paint0_linear_1_18)"></circle><path d="M40 20.7405C28.9577 20.7405 20.0563 29.6419 20.0563 40.6841C20.0563 51.7264 28.9577 60.7405 40 60.7405C51.0423 60.7405 59.9437 51.8391 59.9437 40.7968C59.9437 29.7546 51.0423 20.7405 40 20.7405ZM40 56.0081C31.5493 56.0081 24.7887 49.1348 24.7887 40.7968C24.7887 32.3461 31.662 25.5855 40 25.5855C48.4507 25.5855 55.2113 32.4588 55.2113 40.7968C55.2113 49.1348 48.4507 56.0081 40 56.0081Z" fill="white"></path><path d="M39.9999 32.6841C35.4928 32.6841 31.8872 36.2897 31.8872 40.7968C31.8872 45.3038 35.4928 48.9095 39.9999 48.9095C44.5069 48.9095 48.1125 45.3038 48.1125 40.7968C48.1125 36.2897 44.5069 32.6841 39.9999 32.6841ZM39.9999 45.4165C37.4083 45.4165 35.2675 43.2757 35.2675 40.6841C35.2675 38.0926 37.4083 35.9517 39.9999 35.9517C42.5914 35.9517 44.7323 38.0926 44.7323 40.6841C44.7323 43.3883 42.5914 45.4165 39.9999 45.4165Z" fill="white"></path><path d="M40 38.093C38.5352 38.093 37.2958 39.3325 37.2958 40.7973C37.2958 42.262 38.5352 43.5015 40 43.5015C41.4648 43.5015 42.7042 42.262 42.7042 40.7973C42.7042 39.3325 41.4648 38.093 40 38.093ZM38.3098 39.3325C38.3098 38.7691 38.7605 38.3184 39.3239 38.3184C39.8873 38.3184 40.338 38.7691 40.338 39.3325C40.338 39.8959 39.8873 40.3466 39.3239 40.3466C38.7605 40.3466 38.3098 39.8959 38.3098 39.3325ZM39.7746 43.1635C39.3239 43.1635 38.9859 42.8254 38.9859 42.3747C38.9859 41.924 39.3239 41.586 39.7746 41.586C40.2253 41.586 40.5634 41.924 40.5634 42.3747C40.5634 42.8254 40.2253 43.1635 39.7746 43.1635Z" fill="white"></path><path d="M40 31.1066C41.1201 31.1066 42.0281 30.1986 42.0281 29.0785C42.0281 27.9584 41.1201 27.0503 40 27.0503C38.8798 27.0503 37.9718 27.9584 37.9718 29.0785C37.9718 30.1986 38.8798 31.1066 40 31.1066Z" fill="white"></path><path d="M40 54.4307C41.1201 54.4307 42.0281 53.5226 42.0281 52.4025C42.0281 51.2824 41.1201 50.3743 40 50.3743C38.8798 50.3743 37.9718 51.2824 37.9718 52.4025C37.9718 53.5226 38.8798 54.4307 40 54.4307Z" fill="white"></path><path d="M31.7745 34.4868C32.8946 34.4868 33.8027 33.5787 33.8027 32.4586C33.8027 31.3385 32.8946 30.4305 31.7745 30.4305C30.6544 30.4305 29.7463 31.3385 29.7463 32.4586C29.7463 33.5787 30.6544 34.4868 31.7745 34.4868Z" fill="white"></path><path d="M48.2254 51.0505C49.3456 51.0505 50.2536 50.1425 50.2536 49.0224C50.2536 47.9022 49.3456 46.9942 48.2254 46.9942C47.1053 46.9942 46.1973 47.9022 46.1973 49.0224C46.1973 50.1425 47.1053 51.0505 48.2254 51.0505Z" fill="white"></path><path d="M28.3943 42.8254C29.5145 42.8254 30.4225 41.9174 30.4225 40.7972C30.4225 39.6771 29.5145 38.7691 28.3943 38.7691C27.2742 38.7691 26.3662 39.6771 26.3662 40.7972C26.3662 41.9174 27.2742 42.8254 28.3943 42.8254Z" fill="white"></path><path d="M51.7184 42.8254C52.8385 42.8254 53.7465 41.9174 53.7465 40.7972C53.7465 39.6771 52.8385 38.7691 51.7184 38.7691C50.5982 38.7691 49.6902 39.6771 49.6902 40.7972C49.6902 41.9174 50.5982 42.8254 51.7184 42.8254Z" fill="white"></path><path d="M31.7745 51.0505C32.8946 51.0505 33.8027 50.1425 33.8027 49.0224C33.8027 47.9022 32.8946 46.9942 31.7745 46.9942C30.6544 46.9942 29.7463 47.9022 29.7463 49.0224C29.7463 50.1425 30.6544 51.0505 31.7745 51.0505Z" fill="white"></path><path d="M48.2254 34.4868C49.3456 34.4868 50.2536 33.5787 50.2536 32.4586C50.2536 31.3385 49.3456 30.4305 48.2254 30.4305C47.1053 30.4305 46.1973 31.3385 46.1973 32.4586C46.1973 33.5787 47.1053 34.4868 48.2254 34.4868Z" fill="white"></path><defs><linearGradient id="paint0_linear_1_18" x1="0.143042" y1="41.3651" x2="80.143" y2="41.3651" gradientUnits="userSpaceOnUse"><stop stop-color="#E01C08"></stop><stop offset="0.685" stop-color="#C01503"></stop><stop offset="1" stop-color="#B11101"></stop></linearGradient></defs></svg>