<svg xmlns="http://www.w3.org/2000/svg" width="57" height="58" viewBox="0 0 57 58" fill="none"><path d="M0.307617 29.1038C0.307617 13.5311 12.9318 0.906982 28.5044 0.906982V0.906982C44.0771 0.906982 56.7013 13.5311 56.7013 29.1038V29.1038C56.7013 44.6765 44.0771 57.3006 28.5044 57.3006V57.3006C12.9318 57.3006 0.307617 44.6765 0.307617 29.1038V29.1038Z" fill="#E01C08"></path><path d="M40.7591 33.5041L37.0163 31.2715C36.1433 30.7501 35.1033 30.5838 34.1113 30.8071C33.1192 31.0304 32.2508 31.6262 31.6854 32.4714L30.6059 34.0821C27.5232 32.5677 25.0315 30.0714 23.5225 26.9861L25.1248 25.9193C25.9711 25.3569 26.5694 24.4911 26.7961 23.5005C27.0228 22.5099 26.8606 21.47 26.3431 20.5955L24.1331 16.8555C23.7922 16.2851 23.2823 15.835 22.6741 15.5675C22.0659 15.2999 21.3895 15.2282 20.7388 15.3623C19.7241 15.5668 18.762 15.9771 17.9121 16.568C17.0623 17.1589 16.3425 17.9178 15.7974 18.7977C15.2598 19.656 14.9066 20.6167 14.7603 21.6189C14.6139 22.621 14.6777 23.6426 14.9474 24.6188C16.1445 28.9275 18.4363 32.853 21.6 36.0135C24.7637 39.1739 28.6915 41.4618 33.0014 42.6544C33.9767 42.924 34.9974 42.9877 35.9986 42.8414C36.9998 42.6951 37.9596 42.3419 38.8169 41.8044C39.697 41.2597 40.4562 40.5403 41.0473 39.6907C41.6384 38.841 42.049 37.8791 42.2537 36.8645C42.382 36.2186 42.3072 35.5488 42.0396 34.9471C41.772 34.3455 41.3247 33.8414 40.7591 33.5041ZM40.1698 36.4508C40.0223 37.1786 39.7271 37.8685 39.3024 38.4777C38.8777 39.0869 38.3325 39.6024 37.7005 39.9925C37.0906 40.3751 36.4076 40.6265 35.6952 40.7306C34.9827 40.8348 34.2564 40.7894 33.5624 40.5974C29.6097 39.503 26.0075 37.4044 23.106 34.5057C20.2045 31.6069 18.1025 28.0066 17.0044 24.055C16.8115 23.3605 16.7655 22.6334 16.8695 21.9202C16.9734 21.2069 17.2249 20.5232 17.6079 19.9126C18.0014 19.277 18.5216 18.7292 19.136 18.3034C19.7505 17.8776 20.446 17.583 21.1794 17.4377C21.2484 17.4236 21.3186 17.4165 21.389 17.4165C21.5738 17.4166 21.7554 17.4649 21.9159 17.5566C22.0764 17.6482 22.2102 17.7801 22.3042 17.9392L24.5199 21.6778C24.7601 22.084 24.8353 22.5669 24.7299 23.0269C24.6244 23.4869 24.3464 23.8889 23.9532 24.1499L21.6015 25.7153C21.3962 25.8519 21.2447 26.0556 21.1731 26.2916C21.1015 26.5276 21.1143 26.7811 21.2091 27.0087C22.9864 31.2427 26.3492 34.6137 30.5789 36.4012C30.8062 36.4954 31.059 36.5081 31.2945 36.4371C31.53 36.3661 31.7337 36.2158 31.8709 36.0116L33.4505 33.6543C33.7129 33.261 34.1165 32.9837 34.5778 32.8798C35.039 32.7759 35.5226 32.8533 35.9283 33.0961L39.6725 35.3288C39.861 35.4417 40.0099 35.6102 40.0989 35.811C40.188 36.0119 40.2127 36.2353 40.1698 36.4508ZM32.0027 25.6048C31.904 25.5063 31.8257 25.3892 31.7723 25.2604C31.7189 25.1315 31.6914 24.9934 31.6914 24.854C31.6914 24.7145 31.7189 24.5764 31.7723 24.4476C31.8257 24.3187 31.904 24.2017 32.0027 24.1031L37.2713 18.8331H35.1151C34.8333 18.8331 34.5631 18.7212 34.3638 18.5219C34.1646 18.3227 34.0526 18.0524 34.0526 17.7706C34.0526 17.4888 34.1646 17.2186 34.3638 17.0193C34.5631 16.8201 34.8333 16.7081 35.1151 16.7081H39.8369C40.1183 16.7093 40.3879 16.8216 40.5869 17.0206C40.7859 17.2196 40.8982 17.4892 40.8994 17.7706V22.4924C40.8994 22.7742 40.7874 23.0444 40.5882 23.2437C40.3889 23.4429 40.1187 23.5549 39.8369 23.5549C39.5551 23.5549 39.2848 23.4429 39.0856 23.2437C38.8863 23.0444 38.7744 22.7742 38.7744 22.4924V20.3362L33.5044 25.6048C33.4059 25.7037 33.2889 25.7821 33.16 25.8356C33.0312 25.8892 32.893 25.9167 32.7535 25.9167C32.614 25.9167 32.4759 25.8892 32.347 25.8356C32.2182 25.7821 32.1011 25.7037 32.0027 25.6048Z" fill="white"></path></svg>